<svg width="56" height="59" viewBox="0 0 56 59" fill="none" xmlns="http://www.w3.org/2000/svg">
<path d="M0 58.7088V0.931881H14.4442V8.50346H16.541C17.4729 6.48437 19.2201 4.58177 21.7828 2.79565C24.3455 0.931884 28.2284 0 33.4314 0C37.9355 0 41.8572 1.04837 45.1965 3.14511C48.6134 5.1642 51.2537 7.99868 53.1175 11.6486C54.9813 15.2208 55.9131 19.4143 55.9131 24.229V58.7088H41.2359V25.3939C41.2359 21.0451 40.1487 17.7835 37.9743 15.6091C35.8776 13.4347 32.849 12.3475 28.8885 12.3475C24.3843 12.3475 20.8898 13.8618 18.4047 16.8904C15.9197 19.8414 14.6772 23.9961 14.6772 29.3544V58.7088H0Z" fill="url(#paint0_linear_5_5)"/>
<defs>
<linearGradient id="paint0_linear_5_5" x1="1.68746" y1="92.7088" x2="62.2845" y2="92.7088" gradientUnits="userSpaceOnUse">
<stop offset="0.562212" stop-color="#29B2B0"/>
<stop offset="1" stop-color="#0B64F4"/>
</linearGradient>
</defs>
</svg>
