<svg width="299" height="85" viewBox="0 0 299 85" fill="none" xmlns="http://www.w3.org/2000/svg">
<path d="M0.000190617 83.1709V25.394H14.4444V32.9656H16.5412C17.473 30.9465 19.2203 29.0439 21.783 27.2578C24.3457 25.394 28.2286 24.4621 33.4316 24.4621C37.9357 24.4621 41.8574 25.5105 45.1966 27.6072C48.6136 29.6263 51.2539 32.4608 53.1177 36.1107C54.9814 39.6829 55.9133 43.8764 55.9133 48.6911V83.1709H41.2361V49.856C41.2361 45.5072 40.1489 42.2456 37.9745 40.0712C35.8778 37.8968 32.8492 36.8096 28.8886 36.8096C24.3845 36.8096 20.89 38.3239 18.4049 41.3525C15.9199 44.3035 14.6774 48.4582 14.6774 53.8165V83.1709H0.000190617ZM71.78 83.1709V25.394H86.4572V83.1709H71.78ZM79.1186 18.6378C76.4782 18.6378 74.2262 17.7836 72.3624 16.0751C70.5763 14.3667 69.6832 12.1146 69.6832 9.31896C69.6832 6.5233 70.5763 4.27125 72.3624 2.56279C74.2262 0.854331 76.4782 0.000101454 79.1186 0.000101454C81.8366 0.000101454 84.0886 0.854331 85.8747 2.56279C87.6608 4.27125 88.5539 6.5233 88.5539 9.31896C88.5539 12.1146 87.6608 14.3667 85.8747 16.0751C84.0886 17.7836 81.8366 18.6378 79.1186 18.6378ZM126.019 84.8017C121.437 84.8017 117.127 83.6757 113.089 81.4236C109.128 79.0939 105.944 75.7158 103.537 71.2894C101.129 66.8629 99.9258 61.5046 99.9258 55.2143V53.3506C99.9258 47.0603 101.129 41.702 103.537 37.2755C105.944 32.8491 109.128 29.5098 113.089 27.2578C117.049 24.928 121.359 23.7632 126.019 23.7632C129.513 23.7632 132.425 24.1903 134.755 25.0445C137.162 25.8211 139.104 26.8306 140.579 28.0732C142.055 29.3157 143.181 30.6358 143.957 32.0337H146.054V1.6309H160.731V83.1709H146.287V76.1818H144.19C142.87 78.3562 140.812 80.3364 138.017 82.1225C135.299 83.9086 131.299 84.8017 126.019 84.8017ZM130.445 71.9883C134.949 71.9883 138.716 70.5516 141.744 67.6783C144.773 64.7273 146.287 60.4562 146.287 54.8649V53.7C146.287 48.1087 144.773 43.8764 141.744 41.0031C138.793 38.0521 135.027 36.5766 130.445 36.5766C125.941 36.5766 122.175 38.0521 119.146 41.0031C116.117 43.8764 114.603 48.1087 114.603 53.7V54.8649C114.603 60.4562 116.117 64.7273 119.146 67.6783C122.175 70.5516 125.941 71.9883 130.445 71.9883ZM203.33 84.8017C197.583 84.8017 192.496 83.598 188.07 81.1906C183.721 78.7056 180.304 75.2499 177.819 70.8234C175.412 66.3193 174.208 61.0386 174.208 54.9814V53.5835C174.208 47.5263 175.412 42.2844 177.819 37.858C180.227 33.3538 183.605 29.8981 187.954 27.4907C192.302 25.0057 197.35 23.7632 203.097 23.7632C208.766 23.7632 213.697 25.0445 217.89 27.6072C222.084 30.0922 225.345 33.5868 227.675 38.0909C230.005 42.5174 231.17 47.6816 231.17 53.5835V58.5924H189.118C189.274 62.5529 190.749 65.7757 193.545 68.2607C196.34 70.7458 199.757 71.9883 203.796 71.9883C207.911 71.9883 210.94 71.0952 212.881 69.3091C214.823 67.523 216.298 65.5427 217.308 63.3683L229.306 69.6586C228.219 71.6776 226.627 73.8909 224.53 76.2982C222.511 78.628 219.793 80.647 216.376 82.3555C212.959 83.9863 208.61 84.8017 203.33 84.8017ZM189.235 47.6428H216.26C215.949 44.3035 214.59 41.6243 212.183 39.6052C209.853 37.5862 206.785 36.5766 202.98 36.5766C199.02 36.5766 195.875 37.5862 193.545 39.6052C191.215 41.6243 189.778 44.3035 189.235 47.6428ZM235.354 83.1709L256.322 54.0495L235.587 25.394H252.594L265.757 44.6141H267.854L281.016 25.394H298.023L277.289 54.0495L298.256 83.1709H281.016L267.854 63.7178H265.757L252.594 83.1709H235.354Z" fill="black"/>
</svg>
